# xmcd
#
# Track frame offsets:
#	150
#	14000
#	28092
#	43669
#	64370
#	79482
#	96040
#	111455
#	129999
#	144815
#	164553
#	180935
#	195882
#	212527
#
# Disc length: 3094
#
# Revision: 1
# Processed by: cddbd v1.5.1PL0 Copyright (c) Steve Scherf et al.
# Submitted via: EasyCDDAExtractor 5.0.4.1
# Normalized: r0:DSETVAR1
#
DISCID=be0c140e
DTITLE=Various Artist - Shades Of Blue_Blues For All Moods Vol1
DYEAR=2001
DGENRE=Blues
TTITLE0=Rosco Gordon - Just A Little Bit
TTITLE1=Billy Boy Arnold - Let's Work It Out
TTITLE2=Duke Robillard - Don't Leave Me Baby
TTITLE3=Jay McShann - Confessin' The Blues
TTITLE4=Sonny Rhodes - Meet Me At The 10th Street Inn
TTITLE5=Lowell Fulson With Powder Blues Band - Reconsider Baby
TTITLE6=Jim Byrnes - No Special Rider
TTITLE7=David Clayton-Thomas - Hoochie Coochie Man
TTITLE8=Big Dave McLean - Going To New York
TTITLE9=Long John Baldry - One Step Ahead
TTITLE10=Doug James - Blow Mr Low
TTITLE11=King Biscuit Boy - Operator
TTITLE12=Amos Garrett, Doug Sahm, Gene Taylor Band - Shure Is A Good Thing
TTITLE13=Ray Bonneville - The Price To Pay
EXTD=
EXTT0=
EXTT1=
EXTT2=
EXTT3=
EXTT4=
EXTT5=
EXTT6=
EXTT7=
EXTT8=
EXTT9=
EXTT10=
EXTT11=
EXTT12=
EXTT13=
PLAYORDER=
